<?xml version="1.0" encoding="UTF-8"?>
<svg width="750" height="471" viewBox="0 0 750 471" version="1.1" xmlns="http://www.w3.org/2000/svg">
  <g fill="none" fill-rule="evenodd">
    <rect fill="#2557D6" width="750" height="471" rx="40"></rect>
    <path d="M38,175.6 L44.1,175.6 L48.5,186 L48.5,175.6 L56.1,175.6 L56.1,197.1 L50,197.1 L45.6,186.7 L45.6,197.1 L38,197.1 L38,175.6 Z M59.7,197.1 L59.7,175.6 L79.5,175.6 L79.5,181.1 L67.3,181.1 L67.3,183.8 L79.1,183.8 L79.1,189.3 L67.3,189.3 L67.3,191.7 L79.5,191.7 L79.5,197.1 L59.7,197.1 Z M85.3,175.6 L95.8,175.6 C100.5,175.6 103.5,178.3 103.5,182.6 C103.5,188 99.2,190.2 94.7,190.2 L92.9,190.2 L92.9,197.1 L85.3,197.1 L85.3,175.6 Z M92.9,185 L93.5,185 C95.6,185 95.9,183.9 95.9,183.2 C95.9,182.5 95.6,181.4 93.9,181.4 L92.9,181.4 L92.9,185 Z M107.2,175.6 L115.3,175.6 L119.8,186.3 L124.3,175.6 L132.3,175.6 L132.3,197.1 L125,197.1 L125,182.8 L119.8,197.1 L119.7,197.1 L114.5,182.8 L114.5,197.1 L107.2,197.1 L107.2,175.6 Z M135.9,197.1 L135.9,175.6 L155.7,175.6 L155.7,181.1 L143.5,181.1 L143.5,183.8 L155.4,183.8 L155.4,189.3 L143.5,189.3 L143.5,191.7 L155.7,191.7 L155.7,197.1 L135.9,197.1 Z M165.5,175.6 L172.2,175.6 L179.9,186.7 L179.9,175.6 L187.1,175.6 L187.1,197.1 L180.7,197.1 L172.7,185.7 L172.7,197.1 L165.5,197.1 L165.5,175.6 Z M191.3,186.3 C191.3,177.1 198.7,175.1 204.3,175.1 C209.9,175.1 217.3,177.1 217.3,186.3 C217.3,195.5 209.9,197.7 204.3,197.7 C198.7,197.7 191.3,195.5 191.3,186.3 Z M209.3,186.3 C209.3,183.5 207.6,181.3 204.3,181.3 C201,181.3 199.3,183.5 199.3,186.3 C199.3,189.1 201,191.3 204.3,191.3 C207.6,191.3 209.3,189.1 209.3,186.3 Z M221.1,175.6 L230.1,175.6 C236.5,175.6 241.1,178 241.1,185.9 C241.1,193.8 236.5,197.1 230.7,197.1 L221.1,197.1 L221.1,175.6 Z M228.7,191.4 L229.5,191.4 C232.2,191.4 233.5,189.2 233.5,186.3 C233.5,183.4 232.5,181.3 229.5,181.3 L228.7,181.3 L228.7,191.4 Z M243.9,197.1 L243.9,175.6 L251.5,175.6 L251.5,197.1 L243.9,197.1 Z M265.5,175.6 L257.3,175.6 L257.3,197.1 L264.8,197.1 L264.8,184.6 L271.9,197.1 L280.9,197.1 L272.2,184.6 L280.2,175.6 L271.9,175.6 L265.5,183.3 L265.5,175.6 Z M283.2,175.6 L289.3,175.6 L293.7,186 L293.7,175.6 L301.3,175.6 L301.3,197.1 L295.2,197.1 L290.8,186.7 L290.8,197.1 L283.2,197.1 L283.2,175.6 Z M304.7,197.1 L304.7,175.6 L324.5,175.6 L324.5,181.1 L312.3,181.1 L312.3,183.8 L324.1,183.8 L324.1,189.3 L312.3,189.3 L312.3,191.7 L324.5,191.7 L324.5,197.1 L304.7,197.1 Z M326.4,189.7 L334,189.7 C334,191.6 335.3,191.8 336.2,191.8 C337.1,191.8 338.2,191.5 338.2,190.4 C338.2,189.3 336.2,189 334.9,188.8 C330.4,188.1 327.2,186.7 327.2,182.6 C327.2,178.2 331.5,175.1 336.2,175.1 C340.6,175.1 345.3,177.1 345.3,181.9 L338,181.9 C338,180.4 337.1,180.1 336.1,180.1 C335.3,180.1 334.5,180.5 334.5,181.2 C334.5,182.1 335.7,182.2 340.1,183.3 C343.2,184.1 345.6,185.8 345.6,189.4 C345.6,193.8 341.6,197.1 336.1,197.1 C330.6,197.1 326.4,194.3 326.4,189.7 Z M348.1,189.7 L355.7,189.7 C355.7,191.6 357,191.8 357.9,191.8 C358.8,191.8 359.9,191.5 359.9,190.4 C359.9,189.3 357.9,189 356.6,188.8 C352.1,188.1 348.9,186.7 348.9,182.6 C348.9,178.2 353.2,175.1 357.9,175.1 C362.3,175.1 367,177.1 367,181.9 L359.7,181.9 C359.7,180.4 358.8,180.1 357.8,180.1 C357,180.1 356.2,180.5 356.2,181.2 C356.2,182.1 357.4,182.2 361.8,183.3 C364.9,184.1 367.3,185.8 367.3,189.4 C367.3,193.8 363.3,197.1 357.8,197.1 C352.3,197.1 348.1,194.3 348.1,189.7 Z M38,258.6 L44.1,258.6 L48.5,269 L48.5,258.6 L56.1,258.6 L56.1,280.1 L50,280.1 L45.6,269.7 L45.6,280.1 L38,280.1 L38,258.6 Z M59.7,280.1 L59.7,258.6 L79.5,258.6 L79.5,264.1 L67.3,264.1 L67.3,266.8 L79.1,266.8 L79.1,272.3 L67.3,272.3 L67.3,274.7 L79.5,274.7 L79.5,280.1 L59.7,280.1 Z M85.3,258.6 L95.8,258.6 C100.5,258.6 103.5,261.3 103.5,265.6 C103.5,271 99.2,273.2 94.7,273.2 L92.9,273.2 L92.9,280.1 L85.3,280.1 L85.3,258.6 Z M92.9,268 L93.5,268 C95.6,268 95.9,266.9 95.9,266.2 C95.9,265.5 95.6,264.4 93.9,264.4 L92.9,264.4 L92.9,268 Z M107.2,258.6 L115.3,258.6 L119.8,269.3 L124.3,258.6 L132.3,258.6 L132.3,280.1 L125,280.1 L125,265.8 L119.8,280.1 L119.7,280.1 L114.5,265.8 L114.5,280.1 L107.2,280.1 L107.2,258.6 Z M135.9,280.1 L135.9,258.6 L155.7,258.6 L155.7,264.1 L143.5,264.1 L143.5,266.8 L155.4,266.8 L155.4,272.3 L143.5,272.3 L143.5,274.7 L155.7,274.7 L155.7,280.1 L135.9,280.1 Z M165.5,258.6 L172.2,258.6 L179.9,269.7 L179.9,258.6 L187.1,258.6 L187.1,280.1 L180.7,280.1 L172.7,268.7 L172.7,280.1 L165.5,280.1 L165.5,258.6 Z M38,298.5 L48.6,298.5 C53.3,298.5 56.3,301.2 56.3,305.6 C56.3,309.9 53.3,312.7 48.6,312.7 L45.6,312.7 L45.6,320 L38,320 L38,298.5 Z M45.6,306.9 L46.3,306.9 C48.3,306.9 48.7,305.8 48.7,305.1 C48.7,304.4 48.4,303.3 46.7,303.3 L45.6,303.3 L45.6,306.9 Z M60,298.5 L67.6,298.5 L67.6,308.6 L73.6,298.5 L82.3,298.5 L74.8,310.1 L82.7,320 L74.4,320 L67.6,311.2 L67.6,320 L60,320 L60,298.5 Z M85.1,298.5 L91.2,298.5 L95.6,308.9 L95.6,298.5 L103.2,298.5 L103.2,320 L97.1,320 L92.7,309.6 L92.7,320 L85.1,320 L85.1,298.5 Z M109.2,309.3 C109.2,300.1 116.6,298.1 122.2,298.1 C127.8,298.1 135.2,300.1 135.2,309.3 C135.2,318.5 127.8,320.7 122.2,320.7 C116.6,320.7 109.2,318.5 109.2,309.3 Z M127.2,309.3 C127.2,306.5 125.5,304.3 122.2,304.3 C118.9,304.3 117.2,306.5 117.2,309.3 C117.2,312.1 118.9,314.3 122.2,314.3 C125.5,314.3 127.2,312.1 127.2,309.3 Z M142.3,320 L142.3,298.5 L149.9,298.5 L149.9,314.7 L159.7,314.7 L159.7,320 L142.3,320 Z M163.1,298.5 L170.7,298.5 L170.7,320 L163.1,320 L163.1,298.5 Z M184.7,298.5 L176.5,298.5 L176.5,320 L184,320 L184,307.5 L191.1,320 L200.1,320 L191.4,307.5 L199.4,298.5 L191.1,298.5 L184.7,306.2 L184.7,298.5 Z M200.5,320 L200.5,298.5 L220.3,298.5 L220.3,304 L208.1,304 L208.1,306.7 L219.9,306.7 L219.9,312.2 L208.1,312.2 L208.1,314.6 L220.3,314.6 L220.3,320 L200.5,320 Z" fill="#FFFFFF"></path>
    <polygon fill="#FFFFFF" points="372.3 280.8 344.8 241.1 375.4 241.1 390.6 263.7 406.2 241.1 436.8 241.1 408.8 281.9 438.4 326.7 407.1 326.7 390.6 302.4 373.1 326.7 342.3 326.7"></polygon>
    <path d="M444.9,326.7 L444.9,241.1 L482.3,241.1 C488.7,241.1 493.9,241.8 498,243.3 C502.1,244.8 505.2,247.2 507.3,250.4 C509.4,253.6 510.4,257.5 510.4,262 C510.4,265.6 509.8,268.8 508.6,271.4 C507.4,274 505.6,276.3 503.3,278.1 C501,279.9 498.1,281.4 494.8,282.4 C492.6,283 488.6,283.6 482.8,284.1 L510.9,326.7 L488.2,326.7 L464.1,285.3 L464.1,326.7 L444.9,326.7 Z M464.1,271.7 L480.5,271.7 C484.3,271.7 487,270.9 488.7,269.5 C490.4,268 491.2,265.8 491.2,262.9 C491.2,260.1 490.2,258 488.2,256.5 C486.2,255 483.1,254.3 479,254.3 L464.1,254.3 L464.1,271.7 Z M528.2,326.7 L528.2,241.1 L593.4,241.1 L593.4,256.2 L547.5,256.2 L547.5,273.3 L590.7,273.3 L590.7,288.4 L547.5,288.4 L547.5,311.7 L593.4,311.7 L593.4,326.7 L528.2,326.7 Z M620.6,326.7 L620.6,256.2 L595.3,256.2 L595.3,241.1 L665.4,241.1 L665.4,256.2 L639.9,256.2 L639.9,326.7 L620.6,326.7 Z M666.6,326.7 L666.6,241.1 L685.9,241.1 L685.9,326.7 L666.6,326.7 Z M708.7,326.7 L708.7,241.1 L738.9,241.1 C747.1,241.1 753.5,242.1 758.2,244 C762.9,245.9 766.4,248.9 768.9,252.8 C771.4,256.7 772.6,261.8 772.6,268 C772.6,275.3 770.8,281.3 767.2,286 C763.6,290.7 758.1,293.7 750.6,295.2 L776.2,326.7 L753.2,326.7 L731.1,297.1 L728,297.1 L728,326.7 L708.7,326.7 Z M728,283.9 L734.3,283.9 C740.9,283.9 745.5,282.6 748.3,280.1 C751.1,277.6 752.4,273.7 752.4,268.5 C752.4,263.7 751.1,260 748.4,257.6 C745.7,255.2 741.1,253.9 734.6,253.9 L728,253.9 L728,283.9 Z" fill="#FFFFFF"></path>
  </g>
</svg>