<?xml version="1.0" encoding="UTF-8"?>
<svg width="750" height="471" viewBox="0 0 750 471" version="1.1" xmlns="http://www.w3.org/2000/svg">
  <g fill="none" fill-rule="evenodd">
    <rect fill="#16366F" width="750" height="471" rx="40"></rect>
    <path d="M323.2,314.5 C282.8,314.5 249.9,290.5 249.9,235.6 C249.9,180.7 282.8,156.8 323.2,156.8 C363.6,156.8 396.5,180.7 396.5,235.6 C396.5,290.5 363.6,314.5 323.2,314.5 Z" fill="#D9222A"></path>
    <path d="M426.9,156.8 C387.4,156.8 359,180.7 359,235.6 C359,290.5 387.4,314.5 426.9,314.5 C466.3,314.5 494.7,290.5 494.7,235.6 C494.7,180.7 466.3,156.8 426.9,156.8 Z" fill="#EE9F2D"></path>
    <path d="M375,155.2 C359,180.7 359,290.5 375,316 C391,290.5 391,180.7 375,155.2 Z" fill="#D9222A"></path>
    <path d="M250,348.2 L250,341.6 L251.7,341.6 L251.7,347.5 L253.8,347.5 L253.8,348.2 L250,348.2 Z M261.7,348.2 L259.9,344.1 C259.8,343.9 259.8,343.7 259.7,343.5 L259.7,343.5 C259.7,343.7 259.6,343.9 259.5,344.1 L257.7,348.2 L256.9,348.2 L254.4,341.6 L255.5,341.6 L257.2,345.7 C257.3,346 257.4,346.3 257.4,346.6 L257.4,346.6 C257.5,346.3 257.6,346 257.7,345.7 L259.4,341.6 L260.2,341.6 L262,345.7 C262.1,346 262.1,346.3 262.2,346.5 L262.2,346.5 C262.2,346.3 262.3,346 262.4,345.7 L264.1,341.6 L265.1,341.6 L262.6,348.2 L261.7,348.2 Z M267.3,348.2 L267.3,341.6 L271.2,341.6 L271.2,342.3 L268.3,342.3 L268.3,344.4 L271,344.4 L271,345.1 L268.3,345.1 L268.3,347.5 L271.2,347.5 L271.2,348.2 L267.3,348.2 Z M275.7,343.7 C274.9,343.3 274.5,342.8 274.5,342.1 C274.5,341.3 275.2,340.7 276.1,340.7 C276.6,340.7 277,340.8 277.4,341.1 L277.1,341.8 C276.8,341.5 276.4,341.4 276.1,341.4 C275.5,341.4 275.3,341.7 275.3,342 C275.3,342.4 275.6,342.6 276.2,342.8 C277.1,343.2 277.5,343.7 277.5,344.4 C277.5,345.3 276.8,345.9 275.8,345.9 C275.2,345.9 274.7,345.8 274.2,345.4 L274.5,344.7 C274.9,345 275.3,345.2 275.8,345.2 C276.4,345.2 276.7,344.9 276.7,344.5 C276.7,344.1 276.4,343.9 275.7,343.7 L275.7,343.7 Z M278.9,348.2 L278.9,341.6 L279.9,341.6 L279.9,344.3 L282.4,344.3 L282.4,341.6 L283.4,341.6 L283.4,348.2 L282.4,348.2 L282.4,345 L279.9,345 L279.9,348.2 L278.9,348.2 Z M285,348.2 L285,341.6 L286,341.6 L286,348.2 L285,348.2 Z M287.9,347.9 L288.2,347.2 C288.6,347.5 289.1,347.7 289.6,347.7 C290.2,347.7 290.6,347.4 290.6,347 C290.6,346.6 290.3,346.4 289.6,346.2 C288.7,345.9 288.1,345.5 288.1,344.7 C288.1,343.9 288.8,343.4 289.7,343.4 C290.2,343.4 290.7,343.6 291.1,343.8 L290.8,344.5 C290.5,344.3 290.1,344.1 289.7,344.1 C289.1,344.1 288.8,344.4 288.8,344.7 C288.8,345.1 289.1,345.3 289.8,345.5 C290.7,345.8 291.3,346.2 291.3,347 C291.3,347.9 290.6,348.4 289.5,348.4 C289,348.4 288.4,348.2 287.9,347.9 L287.9,347.9 Z M295.2,348.2 L295.2,341.6 L299.1,341.6 L299.1,342.3 L296.2,342.3 L296.2,344.4 L298.9,344.4 L298.9,345.1 L296.2,345.1 L296.2,347.5 L299.1,347.5 L299.1,348.2 L295.2,348.2 Z M300.9,348.2 L300.9,341.6 L302.6,341.6 C304.3,341.6 305.4,342.6 305.4,344.8 C305.4,347.1 304.1,348.2 302.4,348.2 L300.9,348.2 Z M302.4,347.5 C303.6,347.5 304.4,346.7 304.4,344.8 C304.4,343 303.7,342.3 302.5,342.3 L301.9,342.3 L301.9,347.5 L302.4,347.5 Z M311.5,348.2 L310.9,346.5 L308.7,346.5 L308.1,348.2 L307.1,348.2 L309.2,341.6 L310.5,341.6 L312.6,348.2 L311.5,348.2 Z M310.7,345.7 L310.1,344 C310,343.7 309.9,343.4 309.9,343.1 L309.8,343.1 C309.8,343.4 309.7,343.7 309.6,344 L309,345.7 L310.7,345.7 Z M313.7,348.2 L313.7,341.6 L314.7,341.6 L314.7,347.5 L317.2,347.5 L317.2,348.2 L313.7,348.2 Z M322.2,348.2 L319.1,344 C319,343.8 318.8,343.4 318.8,343.4 L318.8,343.4 C318.8,343.4 318.8,343.8 318.8,344 L318.8,348.2 L317.9,348.2 L317.9,341.6 L318.9,341.6 L321.8,345.5 C322,345.7 322.2,346.1 322.2,346.1 L322.2,346.1 C322.2,346.1 322.1,345.7 322.1,345.5 L322.1,341.6 L323,341.6 L323,348.2 L322.2,348.2 Z M326.8,343.5 L325,343.5 L325,342.3 L329.6,342.3 L329.6,343.5 L327.8,343.5 L327.8,348.2 L326.8,348.2 L326.8,343.5 Z M334.7,348.2 L334.7,345.3 L332,345.3 L332,348.2 L331,348.2 L331,341.6 L332,341.6 L332,344.3 L334.7,344.3 L334.7,341.6 L335.7,341.6 L335.7,348.2 L334.7,348.2 Z M336.8,344.9 C336.8,342.9 338.1,341.4 340,341.4 C340.6,341.4 341.1,341.5 341.5,341.7 L341.2,342.5 C340.9,342.3 340.5,342.2 340.1,342.2 C338.8,342.2 337.9,343.2 337.9,344.9 C337.9,346.4 338.7,347.6 340.1,347.6 C340.5,347.6 340.9,347.5 341.3,347.3 L341.5,348 C341.2,348.2 340.7,348.4 339.9,348.4 C338,348.4 336.8,347 336.8,344.9 L336.8,344.9 Z M343.7,344.9 C343.7,342.9 345,341.4 346.9,341.4 C348.8,341.4 350.1,343 350.1,344.9 C350.1,346.9 348.8,348.4 346.9,348.4 C345,348.4 343.7,346.9 343.7,344.9 Z M349.1,344.9 C349.1,343.5 348.2,342.2 346.9,342.2 C345.6,342.2 344.7,343.5 344.7,344.9 C344.7,346.3 345.6,347.6 346.9,347.6 C348.2,347.6 349.1,346.3 349.1,344.9 Z M352.3,348.2 L352.3,341.6 L354,341.6 C355.7,341.6 356.8,342.6 356.8,344.8 C356.8,347.1 355.5,348.2 353.8,348.2 L352.3,348.2 Z M353.8,347.5 C355,347.5 355.8,346.7 355.8,344.8 C355.8,343 355.1,342.3 353.9,342.3 L353.3,342.3 L353.3,347.5 L353.8,347.5 Z M361.3,348.2 L361.3,345.2 L358.7,341.6 L359.9,341.6 L361.7,344.3 C361.8,344.4 361.9,344.7 361.9,344.7 L361.9,344.7 C361.9,344.7 362,344.5 362.1,344.3 L363.8,341.6 L365,341.6 L362.3,345.2 L362.3,348.2 L361.3,348.2 Z M371.7,347.5 C372.6,347.5 373.1,346.8 373.1,345.7 L373.1,341.6 L374.1,341.6 L374.1,345.6 C374.1,347.3 373.3,348.4 371.7,348.4 C370.1,348.4 369.2,347.3 369.2,345.6 L369.2,341.6 L370.2,341.6 L370.2,345.7 C370.2,346.8 370.8,347.5 371.7,347.5 L371.7,347.5 Z M376.1,348.2 L376.1,341.6 L377.1,341.6 L377.1,344.3 L379.6,344.3 L379.6,341.6 L380.6,341.6 L380.6,348.2 L379.6,348.2 L379.6,345 L377.1,345 L377.1,348.2 L376.1,348.2 Z M386.4,348.2 L385.8,346.5 L383.6,346.5 L383,348.2 L382,348.2 L384.1,341.6 L385.4,341.6 L387.5,348.2 L386.4,348.2 Z M385.5,345.7 L385,344 C384.9,343.7 384.8,343.4 384.8,343.1 L384.7,343.1 C384.7,343.4 384.6,343.7 384.5,344 L383.9,345.7 L385.5,345.7 Z M388.7,348.2 L388.7,341.6 L389.7,341.6 L389.7,347.5 L392.2,347.5 L392.2,348.2 L388.7,348.2 Z M393.9,343.5 L392.1,343.5 L392.1,342.3 L396.7,342.3 L396.7,343.5 L394.9,343.5 L394.9,348.2 L393.9,348.2 L393.9,343.5 Z M397.6,348.2 L397.6,341.6 L398.6,341.6 L398.6,344.3 L401.1,344.3 L401.1,341.6 L402.1,341.6 L402.1,348.2 L401.1,348.2 L401.1,345 L398.6,345 L398.6,348.2 L397.6,348.2 Z M406.4,348.2 L406.4,341.6 L410.3,341.6 L410.3,342.3 L407.4,342.3 L407.4,344.4 L410.1,344.4 L410.1,345.1 L407.4,345.1 L407.4,347.5 L410.3,347.5 L410.3,348.2 L406.4,348.2 Z M414.8,343.7 C414,343.3 413.6,342.8 413.6,342.1 C413.6,341.3 414.3,340.7 415.2,340.7 C415.7,340.7 416.1,340.8 416.5,341.1 L416.2,341.8 C415.9,341.5 415.5,341.4 415.2,341.4 C414.6,341.4 414.4,341.7 414.4,342 C414.4,342.4 414.7,342.6 415.3,342.8 C416.2,343.2 416.6,343.7 416.6,344.4 C416.6,345.3 415.9,345.9 414.9,345.9 C414.3,345.9 413.8,345.8 413.3,345.4 L413.6,344.7 C414,345 414.4,345.2 414.9,345.2 C415.5,345.2 415.8,344.9 415.8,344.5 C415.8,344.1 415.5,343.9 414.8,343.7 L414.8,343.7 Z M422,348.2 L421.4,346.5 L419.2,346.5 L418.6,348.2 L417.6,348.2 L419.7,341.6 L421,341.6 L423.1,348.2 L422,348.2 Z M421.1,345.7 L420.6,344 C420.5,343.7 420.4,343.4 420.4,343.1 L420.3,343.1 C420.3,343.4 420.2,343.7 420.1,344 L419.5,345.7 L421.1,345.7 Z M428.7,348.2 L425.6,344 C425.5,343.8 425.3,343.4 425.3,343.4 L425.3,343.4 C425.3,343.4 425.3,343.8 425.3,344 L425.3,348.2 L424.4,348.2 L424.4,341.6 L425.4,341.6 L428.3,345.5 C428.5,345.7 428.7,346.1 428.7,346.1 L428.7,346.1 C428.7,346.1 428.6,345.7 428.6,345.5 L428.6,341.6 L429.5,341.6 L429.5,348.2 L428.7,348.2 Z M436.2,348.2 L435.7,346.5 L433.4,346.5 L432.9,348.2 L431.9,348.2 L434,341.6 L435.3,341.6 L437.4,348.2 L436.2,348.2 Z M435.4,345.7 L434.9,344 C434.8,343.7 434.6,343.4 434.6,343.1 L434.6,343.1 C434.5,343.4 434.4,343.7 434.3,344 L433.7,345.7 L435.4,345.7 Z M441.5,348.2 L441.5,345.3 L438.8,345.3 L438.8,348.2 L437.8,348.2 L437.8,341.6 L438.8,341.6 L438.8,344.3 L441.5,344.3 L441.5,341.6 L442.5,341.6 L442.5,348.2 L441.5,348.2 Z M446.7,348.2 L446.7,341.6 L447.7,341.6 L447.7,348.2 L446.7,348.2 Z M454,348.2 L452.9,348.2 L450.1,341.6 L451.2,341.6 L453.2,346.7 C453.3,346.9 453.3,347.2 453.4,347.4 L453.4,347.4 C453.4,347.2 453.5,346.9 453.6,346.7 L455.6,341.6 L456.6,341.6 L453.8,348.2 L454,348.2 Z M457.8,348.2 L457.8,341.6 L458.8,341.6 L458.8,348.2 L457.8,348.2 Z M465.3,348.2 L462.2,344 C462.1,343.8 461.9,343.4 461.9,343.4 L461.9,343.4 C461.9,343.4 461.9,343.8 461.9,344 L461.9,348.2 L461,348.2 L461,341.6 L462,341.6 L464.9,345.5 C465.1,345.7 465.3,346.1 465.3,346.1 L465.3,346.1 C465.3,346.1 465.2,345.7 465.2,345.5 L465.2,341.6 L466.1,341.6 L466.1,348.2 L465.3,348.2 Z M472.3,346.5 C472.3,347.6 471.3,348.4 469.9,348.4 C469.2,348.4 468.5,348.2 468,347.9 L468.3,347.2 C468.8,347.5 469.3,347.6 469.9,347.6 C470.7,347.6 471.3,347.1 471.3,346.5 C471.3,345 469.4,345.2 469.4,344.1 C469.4,343.3 470.3,342.9 471.1,342.9 C471.7,342.9 472.2,343 472.5,343.1 L472.3,343.9 C472,343.7 471.6,343.6 471.1,343.6 C470.5,343.6 470.2,343.9 470.2,344.2 C470.2,345.6 472.3,345.3 472.3,346.5 L472.3,346.5 Z M473.2,346.3 L473.2,341.6 L474.2,341.6 L474.2,346.4 C474.2,347.1 474.6,347.5 475.3,347.5 C476,347.5 476.4,347.1 476.4,346.4 L476.4,341.6 L477.4,341.6 L477.4,346.3 C477.4,347.6 476.6,348.4 475.3,348.4 C474,348.4 473.2,347.6 473.2,346.3 L473.2,346.3 Z M479.3,347.9 L479.6,347.2 C480,347.5 480.5,347.7 481,347.7 C481.6,347.7 482,347.4 482,347 C482,346.6 481.7,346.4 481,346.2 C480.1,345.9 479.5,345.5 479.5,344.7 C479.5,343.9 480.2,343.4 481.1,343.4 C481.6,343.4 482.1,343.6 482.5,343.8 L482.2,344.5 C481.9,344.3 481.5,344.1 481.1,344.1 C480.5,344.1 480.2,344.4 480.2,344.7 C480.2,345.1 480.5,345.3 481.2,345.5 C482.1,345.8 482.7,346.2 482.7,347 C482.7,347.9 482,348.4 480.9,348.4 C480.4,348.4 479.8,348.2 479.3,347.9 L479.3,347.9 Z M487.5,348.2 L487.5,345.3 L484.8,345.3 L484.8,348.2 L483.8,348.2 L483.8,341.6 L484.8,341.6 L484.8,344.3 L487.5,344.3 L487.5,341.6 L488.5,341.6 L488.5,348.2 L487.5,348.2 Z M490.7,348.2 L490.7,341.6 L494.6,341.6 L494.6,342.3 L491.7,342.3 L491.7,344.4 L494.4,344.4 L494.4,345.1 L491.7,345.1 L491.7,347.5 L494.6,347.5 L494.6,348.2 L490.7,348.2 Z M497.3,348.2 L497.3,341.6 L499,341.6 C500.7,341.6 501.8,342.6 501.8,344.8 C501.8,347.1 500.5,348.2 498.8,348.2 L497.3,348.2 Z M498.8,347.5 C500,347.5 500.8,346.7 500.8,344.8 C500.8,343 500.1,342.3 498.9,342.3 L498.3,342.3 L498.3,347.5 L498.8,347.5 Z"</path>
  </g>
</svg>