<?xml version="1.0" encoding="UTF-8"?>
<svg width="780" height="500" viewBox="0 0 780 500" fill="none" xmlns="http://www.w3.org/2000/svg">
  <path d="M780 404.2C780 455.4 738.4 497 687.2 497H92.8C41.6 497 0 455.4 0 404.2V92.8C0 41.6 41.6 0 92.8 0H687.2C738.4 0 780 41.6 780 92.8V404.2Z" fill="#16366F"/>
  <path d="M490 249.6C490 316.1 434.5 370 366.9 370C337.5 370 310.3 359.3 289.3 342.5C307.3 320.9 318.6 292.8 318.6 262.4C318.6 231.9 307.4 204 289.3 182.3C310.2 165.5 337.4 154.9 366.9 154.9C434.5 154.9 490 208.8 490 249.6Z" fill="#E21836"/>
  <path d="M318.6 262.2C318.6 292.6 307.3 320.9 289.3 342.5C268.3 325.7 255 295.4 255 262.2C255 229 268.3 198.7 289.3 182C307.4 203.7 318.6 231.6 318.6 262.2Z" fill="#EE9F2D"/>
  <path d="M465.8 334V326.4H463.5V324.7H470V326.4H467.8V334H465.8ZM477.9 334H476V327.1H475.9L474.1 334H472.6L470.8 327.1H470.7V334H468.8V324.7H471.9L473.4 330.1H473.5L475 324.7H478V334H477.9Z" fill="white"/>
  <path d="M237.3 275.3C235.5 276.5 233 277.2 230.1 277.2C223.7 277.2 219 272.5 219 266.2C219 260 223.7 255.2 230.3 255.2C233.1 255.2 235.5 255.9 237.4 257.2L236.3 260.1C234.8 259.1 232.7 258.4 230.7 258.4C226.2 258.4 222.9 261.8 222.9 266.1C222.9 270.7 226.3 273.9 230.6 273.9C232.8 273.9 234.8 273.2 236.3 272.1L237.3 275.3Z" fill="white"/>
  <path d="M240.5 264.8C240.5 260.2 243.5 255.3 250.1 255.3C256.4 255.3 259.6 259.9 259.6 265C259.6 269.9 256.4 274.5 250.1 274.5C243.5 274.5 240.5 269.6 240.5 264.8ZM256.1 264.9C256.1 261.8 254.4 258.2 250.1 258.2C245.7 258.2 244 261.7 244 264.8C244 267.9 245.7 271.6 250.1 271.6C254.4 271.6 256.1 267.9 256.1 264.9Z" fill="white"/>
  <path d="M291.8 273.9L291.7 260.4H291.6L286.9 273.9H284.3L279.6 260.4H279.5L279.4 273.9H276V255.5H281.1L285.6 268H285.7L290.1 255.5H295.4L295.4 273.9H291.8Z" fill="white"/>
  <path d="M301.7 273.9V255.5H312.6V258.5H305.2V262.8H312.4V265.8H305.2V270.9H312.6V273.9H301.7Z" fill="white"/>
  <path d="M316.3 273.9L321.3 255.5H325.1L330.1 273.9H326.5L325.4 269.7H320.8L319.8 273.9H316.3ZM321.5 266.9H324.8L323.6 262.1C323.3 261.1 323.1 260 323 259.3H322.9C322.8 260 322.6 261.1 322.3 262.1L321.5 266.9Z" fill="white"/>
  <path d="M357.4 272.7C355.3 273.6 352.5 274.4 349.7 274.4C342.9 274.4 338.1 269.6 338.1 264.9C338.1 258.7 342.9 255.2 349.1 255.2C352.2 255.2 354.7 256 356.5 257L355.3 260.1C353.7 259.1 351.9 258.5 349.5 258.5C346 258.5 341.6 260.2 341.6 264.7C341.6 269 345.9 271.3 349.3 271.3C350.8 271.3 351.9 271.1 352.5 270.8V267.3H348.3V264.2H356L356 272.7H357.4Z" fill="white"/>
  <path d="M364.8 273.9V255.5H368.3V273.9H364.8Z" fill="white"/>
  <path d="M386.1 264.5C386.1 270.8 382.1 274.4 376.7 274.4C371.1 274.4 367.3 270.2 367.3 264.6C367.3 258.6 371.5 255.1 376.9 255.1C382.5 255.1 386.1 259.3 386.1 264.5ZM370.9 264.6C370.9 268.5 373 271.5 376.9 271.5C380.5 271.5 382.6 268.2 382.6 264.5C382.6 261 380.4 258 376.7 258C373.1 258 370.9 261 370.9 264.6Z" fill="white"/>
  <path d="M389.5 273.9V255.5H393.4L400.2 267.1C400.9 268.3 401.9 270.3 402.3 271.3H402.4C402.2 269.7 402.2 267.8 402.2 266.1V255.5H405.4V273.9H401.8L394.8 262C394.2 261 393.2 259 392.8 258.1H392.7C392.8 259.5 392.8 261.3 392.8 262.8V273.9H389.5Z" fill="white"/>
  <path d="M374.5 325.1C374.5 329.9 371.3 334.5 364.6 334.5C358.4 334.5 355.2 329.9 355.2 324.8C355.2 320 358.4 315.4 364.8 315.4C371 315.4 374.5 320 374.5 325.1ZM359.8 324.9C359.8 328 361.5 331.7 364.9 331.7C368.3 331.7 370 328 370 325C370 321.9 368.3 318.3 364.9 318.3C361.3 318.3 359.8 321.9 359.8 324.9Z" fill="white"/>
  <path d="M380.2 330.2C381.7 331.2 383.9 331.9 385.9 331.9C388.3 331.9 389.6 330.9 389.6 329.3C389.6 328 388.6 327.2 386.1 326.1C382.7 324.8 380.7 322.5 380.7 320.3C380.7 317 383.2 315.3 387.2 315.3C389.7 315.3 391.5 316 392.5 316.5L391.5 319.4C390.3 318.7 388.5 318.1 386.6 318.1C384.6 318.1 383.6 319 383.6 320.2C383.6 321.5 384.8 322.2 387 323.2C390.6 324.8 392.6 326.6 392.6 329.3C392.6 332.9 389.8 334.7 385.7 334.7C383.5 334.7 380.8 334 379.1 332.8L380.2 330.2Z" fill="white"/>
  <path d="M396.7 334V316.1H401.4C407.5 316.1 412 321.2 412 325.1C412 329.8 408.6 334 401.9 334H396.7ZM403.7 331C406.7 331 408.4 328.5 408.4 325.1C408.4 322 406.8 319.1 402.9 319.1H400.2V331H403.7Z" fill="white"/>
  <path d="M415.9 334V316.1H419.4V334H415.9Z" fill="white"/>
  <path d="M422.9 334V316.1H426.9L433.5 325.5C434.5 327.2 435.7 329.6 436.3 331H436.4C436.1 328.9 436 326.7 436 325V316.1H439.2V334H435.5L428.9 324.5C427.9 322.8 426.7 320.4 426.1 319.1H426C426.2 321 426.3 323.3 426.3 325.2V334H422.9Z" fill="white"/>
  <path d="M451.3 324.7C451.3 331 448 334.7 442.5 334.7C436.9 334.7 433.7 330.8 433.7 324.6C433.7 318.5 437 314.7 442.7 314.7C448.2 314.7 451.3 318.5 451.3 324.7ZM437.3 324.6C437.3 328.4 439.2 331.8 442.6 331.8C445.9 331.8 447.7 328.4 447.7 324.7C447.7 321 445.9 317.6 442.5 317.6C439.1 317.6 437.3 321 437.3 324.6Z" fill="white"/>
  <path d="M265.1 258.7H270.3C272 258.7 273.2 259.8 273.2 261.8C273.2 263.7 272 265 270.2 265H266.9V269.8H270.7V266.6H271.4L274.1 269.8H276.6L273.6 266.5C275.2 265.9 276.1 264.2 276.1 262.1C276.1 258.7 273.7 256.1 270.1 256.1H263.4V269.8H265.1V258.7Z" fill="white"/>
</svg>