<?xml version="1.0" encoding="UTF-8"?>
<svg width="750" height="471" viewBox="0 0 750 471" version="1.1" xmlns="http://www.w3.org/2000/svg">
  <g fill="none" fill-rule="evenodd">
    <rect fill="#0E4595" width="750" height="471" rx="40"></rect>
    <path d="M278.2,334.1 L311.1,137.8 L364.6,137.8 L331.7,334.1 L278.2,334.1 Z" fill="#FFFFFF"></path>
    <path d="M524.3,142.2 C513.7,138 497.2,133.5 476.9,133.5 C423.1,133.5 385.6,161.1 385.3,201 C385,231.1 412.7,247.8 433.4,258 C454.6,268.4 462.2,274.8 462.1,283.7 C461.9,297.1 445.8,303.3 430.9,303.3 C409.6,303.3 398,299.4 379.9,290.9 L372.4,287.1 L364.2,325.5 C376.7,332.1 400.1,337.9 424.3,338.1 C481.4,338.1 518.3,310.8 518.8,268.4 C519.1,244.7 503.9,226.5 470.7,210.3 C450.6,200 438.1,193.4 438.3,182.5 C438.3,173.2 448.8,163.6 471.3,163.6 C489.2,163.6 502.2,167.4 512,172.4 L517.1,175.2 L525.3,142.2 L524.3,142.2 Z" fill="#FFFFFF"></path>
    <path d="M661.6,138 L620.6,138 C608.4,138 599.5,141.5 594.6,154.2 L513.5,334.1 L570.9,334.1 L581.1,304.8 L653.2,304.8 L658.7,334.1 L709.7,334.1 L661.6,138 Z M597.4,266.8 C602.3,253.3 623.5,197.5 623.5,197.5 C623.2,198 628.8,183.1 631.9,174.2 L634.6,195.5 C634.6,195.5 648.8,255.6 651.2,266.8 L597.4,266.8 L597.4,266.8 Z" fill="#FFFFFF"></path>
    <path d="M232.9,138 L180.2,261.8 L175.6,240.6 C167.3,213.4 142.3,184.9 114.4,171.3 L162.2,334.1 L220.1,334.1 L299.1,138 L232.9,138 Z" fill="#FFFFFF"></path>
    <path d="M131.9,138 L45.7,138 L45,142.4 C111.3,157.7 154.3,196.8 175.6,240.6 L159.1,154.3 C156.6,142.5 145.2,138.3 131.9,138 Z" fill="#F2AE14"></path>
  </g>
</svg>